<svg width="41" height="41" viewBox="0 0 41 41" fill="none" xmlns="http://www.w3.org/2000/svg">
<path d="M19.2188 19.2188L19.2888 19.1846C19.5079 19.0751 19.7537 19.0308 19.9972 19.0567C20.2407 19.0827 20.4716 19.1779 20.6627 19.331C20.8538 19.4842 20.997 19.6888 21.0753 19.9209C21.1537 20.1529 21.1639 20.4025 21.1048 20.6401L19.8953 25.4849C19.8357 25.7227 19.8456 25.9725 19.9238 26.2048C20.0019 26.4371 20.1451 26.6421 20.3362 26.7955C20.5274 26.9489 20.7585 27.0442 21.0022 27.0702C21.246 27.0962 21.492 27.0518 21.7112 26.9421L21.7813 26.9063M35.875 20.5C35.875 22.5191 35.4773 24.5184 34.7046 26.3838C33.932 28.2491 32.7995 29.9441 31.3718 31.3718C29.9441 32.7995 28.2491 33.932 26.3838 34.7046C24.5184 35.4773 22.5191 35.875 20.5 35.875C18.4809 35.875 16.4816 35.4773 14.6162 34.7046C12.7509 33.932 11.0559 32.7995 9.62823 31.3718C8.20053 29.9441 7.06802 28.2491 6.29535 26.3838C5.52269 24.5184 5.125 22.5191 5.125 20.5C5.125 16.4223 6.74486 12.5116 9.62823 9.62823C12.5116 6.74486 16.4223 5.125 20.5 5.125C24.5777 5.125 28.4884 6.74486 31.3718 9.62823C34.2551 12.5116 35.875 16.4223 35.875 20.5ZM20.5 14.0938H20.5137V14.1074H20.5V14.0938Z" stroke="white" stroke-width="1.5" stroke-linecap="round" stroke-linejoin="round"/>
</svg>
