<svg xmlns="http://www.w3.org/2000/svg" xmlns:xlink="http://www.w3.org/1999/xlink" width="41" zoomAndPan="magnify" viewBox="0 0 375 374.999991" height="41" preserveAspectRatio="xMidYMid meet" version="1.0"><defs><clipPath id="47adbd81fc"><path d="M 45.21875 5.671875 L 329.46875 5.671875 L 329.46875 369.421875 L 45.21875 369.421875 Z M 45.21875 5.671875 " clip-rule="nonzero"/></clipPath></defs><g clip-path="url(#47adbd81fc)"><path fill="#174c8c" d="M 130.972656 107.6875 L 101.320312 107.6875 C 100.191406 107.6875 99.070312 107.742188 97.949219 107.851562 C 96.828125 107.960938 95.714844 108.128906 94.613281 108.347656 C 93.507812 108.566406 92.417969 108.839844 91.339844 109.167969 C 90.261719 109.496094 89.203125 109.875 88.164062 110.304688 C 87.125 110.738281 86.109375 111.21875 85.113281 111.75 C 84.121094 112.28125 83.15625 112.859375 82.222656 113.488281 C 81.285156 114.113281 80.382812 114.785156 79.511719 115.5 C 78.640625 116.214844 77.808594 116.96875 77.011719 117.765625 C 76.214844 118.5625 75.460938 119.398438 74.746094 120.269531 C 74.03125 121.140625 73.363281 122.046875 72.738281 122.984375 C 72.113281 123.921875 71.535156 124.886719 71.003906 125.878906 C 70.472656 126.875 69.992188 127.890625 69.5625 128.933594 C 69.128906 129.976562 68.75 131.035156 68.425781 132.113281 C 68.097656 133.191406 67.824219 134.285156 67.605469 135.390625 C 67.386719 136.496094 67.21875 137.609375 67.109375 138.730469 C 67 139.855469 66.945312 140.976562 66.945312 142.105469 C 66.945312 143.234375 67 144.359375 67.109375 145.480469 C 67.21875 146.601562 67.386719 147.714844 67.605469 148.820312 C 67.824219 149.925781 68.097656 151.019531 68.425781 152.097656 C 68.75 153.175781 69.128906 154.234375 69.5625 155.277344 C 69.992188 156.320312 70.472656 157.335938 71.003906 158.332031 C 71.535156 159.324219 72.113281 160.289062 72.738281 161.226562 C 73.363281 162.164062 74.03125 163.070312 74.746094 163.941406 C 75.460938 164.8125 76.214844 165.648438 77.011719 166.445312 C 77.808594 167.242188 78.640625 167.996094 79.511719 168.710938 C 80.382812 169.425781 81.285156 170.097656 82.222656 170.726562 C 83.15625 171.351562 84.121094 171.929688 85.113281 172.460938 C 86.109375 172.992188 87.125 173.472656 88.164062 173.90625 C 89.203125 174.335938 90.261719 174.714844 91.339844 175.042969 C 92.417969 175.371094 93.507812 175.644531 94.613281 175.863281 C 95.714844 176.085938 96.828125 176.25 97.949219 176.359375 C 99.070312 176.46875 100.191406 176.527344 101.320312 176.527344 L 130.972656 176.527344 Z M 152.953125 85.675781 L 221.695312 85.675781 L 221.695312 61.90625 C 221.695312 60.777344 221.640625 59.65625 221.53125 58.53125 C 221.421875 57.410156 221.257812 56.296875 221.035156 55.191406 C 220.816406 54.085938 220.542969 52.992188 220.21875 51.914062 C 219.890625 50.835938 219.511719 49.777344 219.082031 48.734375 C 218.648438 47.691406 218.167969 46.675781 217.636719 45.679688 C 217.109375 44.6875 216.53125 43.722656 215.902344 42.785156 C 215.277344 41.847656 214.609375 40.941406 213.894531 40.070312 C 213.179688 39.199219 212.425781 38.363281 211.628906 37.566406 C 210.832031 36.769531 210 36.015625 209.128906 35.300781 C 208.257812 34.585938 207.355469 33.914062 206.421875 33.289062 C 205.484375 32.660156 204.519531 32.082031 203.527344 31.550781 C 202.535156 31.019531 201.519531 30.539062 200.476562 30.105469 C 199.4375 29.675781 198.378906 29.296875 197.300781 28.96875 C 196.222656 28.640625 195.132812 28.367188 194.027344 28.148438 C 192.925781 27.929688 191.8125 27.761719 190.691406 27.652344 C 189.570312 27.542969 188.449219 27.488281 187.324219 27.488281 C 186.199219 27.488281 185.074219 27.542969 183.953125 27.652344 C 182.832031 27.761719 181.722656 27.929688 180.617188 28.148438 C 179.511719 28.367188 178.421875 28.640625 177.34375 28.96875 C 176.265625 29.296875 175.207031 29.675781 174.167969 30.105469 C 173.128906 30.539062 172.113281 31.019531 171.121094 31.550781 C 170.125 32.082031 169.160156 32.660156 168.226562 33.289062 C 167.289062 33.914062 166.386719 34.585938 165.515625 35.300781 C 164.644531 36.015625 163.8125 36.769531 163.015625 37.566406 C 162.222656 38.363281 161.464844 39.199219 160.75 40.070312 C 160.039062 40.941406 159.367188 41.847656 158.742188 42.785156 C 158.117188 43.722656 157.539062 44.6875 157.007812 45.679688 C 156.476562 46.675781 155.996094 47.691406 155.566406 48.734375 C 155.132812 49.777344 154.757812 50.835938 154.429688 51.914062 C 154.101562 52.992188 153.828125 54.085938 153.609375 55.191406 C 153.390625 56.296875 153.226562 57.410156 153.113281 58.53125 C 153.003906 59.65625 152.949219 60.777344 152.949219 61.90625 Z M 243.679688 267.375 L 273.332031 267.375 C 274.457031 267.375 275.582031 267.320312 276.703125 267.210938 C 277.824219 267.097656 278.933594 266.933594 280.039062 266.714844 C 281.144531 266.492188 282.234375 266.21875 283.3125 265.894531 C 284.386719 265.566406 285.445312 265.1875 286.488281 264.753906 C 287.527344 264.324219 288.542969 263.84375 289.535156 263.3125 C 290.53125 262.78125 291.492188 262.199219 292.429688 261.574219 C 293.367188 260.949219 294.269531 260.277344 295.140625 259.5625 C 296.007812 258.847656 296.84375 258.089844 297.640625 257.292969 C 298.433594 256.496094 299.191406 255.664062 299.902344 254.789062 C 300.617188 253.917969 301.289062 253.015625 301.914062 252.078125 C 302.539062 251.140625 303.117188 250.175781 303.648438 249.179688 C 304.179688 248.1875 304.660156 247.167969 305.089844 246.128906 C 305.519531 245.085938 305.898438 244.027344 306.226562 242.945312 C 306.554688 241.867188 306.828125 240.777344 307.046875 239.671875 C 307.265625 238.566406 307.429688 237.449219 307.542969 236.328125 C 307.652344 235.207031 307.707031 234.082031 307.707031 232.957031 C 307.707031 231.828125 307.652344 230.703125 307.542969 229.582031 C 307.429688 228.460938 307.265625 227.347656 307.046875 226.242188 C 306.828125 225.132812 306.554688 224.042969 306.226562 222.964844 C 305.898438 221.886719 305.519531 220.824219 305.089844 219.785156 C 304.660156 218.742188 304.179688 217.722656 303.648438 216.730469 C 303.117188 215.734375 302.539062 214.769531 301.914062 213.832031 C 301.289062 212.894531 300.617188 211.992188 299.902344 211.121094 C 299.191406 210.25 298.433594 209.414062 297.640625 208.617188 C 296.84375 207.820312 296.007812 207.0625 295.140625 206.347656 C 294.269531 205.632812 293.367188 204.960938 292.429688 204.335938 C 291.492188 203.710938 290.53125 203.132812 289.535156 202.601562 C 288.542969 202.066406 287.527344 201.585938 286.488281 201.15625 C 285.445312 200.722656 284.386719 200.34375 283.3125 200.019531 C 282.234375 199.691406 281.144531 199.417969 280.039062 199.195312 C 278.933594 198.976562 277.824219 198.8125 276.703125 198.703125 C 275.582031 198.589844 274.457031 198.535156 273.332031 198.535156 L 243.679688 198.535156 Z M 221.695312 289.386719 L 152.949219 289.386719 L 152.949219 313.15625 C 152.949219 314.285156 153.003906 315.410156 153.113281 316.53125 C 153.226562 317.652344 153.390625 318.765625 153.609375 319.871094 C 153.828125 320.976562 154.101562 322.070312 154.429688 323.148438 C 154.757812 324.226562 155.132812 325.285156 155.566406 326.328125 C 155.996094 327.371094 156.476562 328.386719 157.007812 329.382812 C 157.539062 330.375 158.117188 331.339844 158.742188 332.277344 C 159.367188 333.214844 160.039062 334.121094 160.75 334.992188 C 161.464844 335.863281 162.222656 336.699219 163.015625 337.496094 C 163.8125 338.292969 164.644531 339.046875 165.515625 339.761719 C 166.386719 340.476562 167.289062 341.148438 168.226562 341.773438 C 169.160156 342.402344 170.125 342.980469 171.121094 343.511719 C 172.113281 344.042969 173.128906 344.523438 174.167969 344.957031 C 175.207031 345.386719 176.265625 345.765625 177.34375 346.09375 C 178.421875 346.421875 179.511719 346.695312 180.617188 346.914062 C 181.722656 347.132812 182.832031 347.300781 183.953125 347.410156 C 185.074219 347.519531 186.199219 347.574219 187.324219 347.574219 C 188.449219 347.574219 189.570312 347.519531 190.691406 347.410156 C 191.8125 347.300781 192.925781 347.132812 194.027344 346.914062 C 195.132812 346.695312 196.222656 346.421875 197.300781 346.09375 C 198.378906 345.765625 199.4375 345.386719 200.476562 344.957031 C 201.519531 344.523438 202.535156 344.042969 203.527344 343.511719 C 204.519531 342.980469 205.484375 342.402344 206.421875 341.773438 C 207.355469 341.148438 208.257812 340.476562 209.128906 339.761719 C 210 339.046875 210.832031 338.292969 211.628906 337.496094 C 212.425781 336.699219 213.179688 335.863281 213.894531 334.992188 C 214.609375 334.121094 215.277344 333.214844 215.902344 332.277344 C 216.53125 331.339844 217.109375 330.375 217.636719 329.382812 C 218.167969 328.386719 218.648438 327.371094 219.082031 326.328125 C 219.511719 325.285156 219.890625 324.226562 220.21875 323.148438 C 220.542969 322.070312 220.816406 320.976562 221.035156 319.871094 C 221.257812 318.765625 221.421875 317.652344 221.53125 316.53125 C 221.640625 315.410156 221.695312 314.285156 221.695312 313.15625 Z M 101.320312 85.675781 L 130.972656 85.675781 L 130.972656 61.90625 C 130.976562 60.0625 131.074219 58.222656 131.261719 56.390625 C 131.449219 54.554688 131.726562 52.734375 132.089844 50.929688 C 132.457031 49.121094 132.910156 47.335938 133.449219 45.574219 C 133.988281 43.8125 134.613281 42.082031 135.324219 40.378906 C 136.035156 38.679688 136.824219 37.015625 137.695312 35.390625 C 138.570312 33.769531 139.519531 32.191406 140.542969 30.660156 C 141.570312 29.132812 142.671875 27.65625 143.839844 26.230469 C 145.011719 24.808594 146.25 23.449219 147.554688 22.148438 C 148.859375 20.847656 150.222656 19.613281 151.648438 18.445312 C 153.074219 17.277344 154.554688 16.183594 156.085938 15.160156 C 157.617188 14.140625 159.195312 13.195312 160.820312 12.328125 C 162.445312 11.460938 164.109375 10.675781 165.8125 9.972656 C 167.511719 9.265625 169.246094 8.648438 171.007812 8.113281 C 172.769531 7.582031 174.554688 7.132812 176.359375 6.777344 C 178.164062 6.417969 179.984375 6.148438 181.816406 5.96875 C 183.648438 5.789062 185.484375 5.695312 187.324219 5.695312 C 189.167969 5.695312 191.003906 5.789062 192.835938 5.96875 C 194.667969 6.148438 196.488281 6.417969 198.292969 6.777344 C 200.097656 7.132812 201.882812 7.582031 203.644531 8.113281 C 205.40625 8.648438 207.140625 9.265625 208.839844 9.972656 C 210.542969 10.675781 212.207031 11.460938 213.832031 12.328125 C 215.457031 13.195312 217.035156 14.140625 218.566406 15.160156 C 220.097656 16.183594 221.578125 17.277344 223.003906 18.445312 C 224.429688 19.613281 225.792969 20.847656 227.097656 22.148438 C 228.402344 23.449219 229.640625 24.808594 230.8125 26.230469 C 231.980469 27.65625 233.082031 29.132812 234.105469 30.660156 C 235.132812 32.191406 236.082031 33.769531 236.957031 35.390625 C 237.828125 37.015625 238.617188 38.679688 239.328125 40.378906 C 240.039062 42.082031 240.664062 43.8125 241.203125 45.574219 C 241.742188 47.335938 242.195312 49.121094 242.5625 50.929688 C 242.925781 52.734375 243.203125 54.554688 243.390625 56.390625 C 243.578125 58.222656 243.675781 60.0625 243.679688 61.90625 L 243.679688 85.675781 L 303.058594 85.675781 C 317.597656 85.675781 317.597656 107.6875 303.058594 107.6875 L 243.679688 107.6875 L 243.679688 148.097656 C 243.679688 162.65625 221.699219 162.65625 221.699219 148.097656 L 221.699219 107.6875 L 152.953125 107.6875 L 152.953125 176.527344 L 273.332031 176.527344 C 275.171875 176.53125 277.011719 176.628906 278.839844 176.816406 C 280.671875 177.003906 282.492188 177.28125 284.296875 177.648438 C 286.101562 178.015625 287.882812 178.46875 289.640625 179.007812 C 291.402344 179.550781 293.132812 180.175781 294.832031 180.886719 C 296.527344 181.59375 298.1875 182.386719 299.808594 183.261719 C 301.433594 184.132812 303.007812 185.085938 304.535156 186.113281 C 306.0625 187.140625 307.539062 188.242188 308.957031 189.414062 C 310.378906 190.585938 311.738281 191.828125 313.039062 193.132812 C 314.335938 194.4375 315.570312 195.804688 316.734375 197.230469 C 317.898438 198.660156 318.992188 200.140625 320.015625 201.675781 C 321.035156 203.207031 321.976562 204.789062 322.84375 206.417969 C 323.710938 208.042969 324.492188 209.707031 325.195312 211.414062 C 325.898438 213.117188 326.515625 214.851562 327.050781 216.613281 C 327.582031 218.378906 328.027344 220.164062 328.386719 221.972656 C 328.746094 223.78125 329.015625 225.605469 329.195312 227.4375 C 329.375 229.273438 329.464844 231.113281 329.464844 232.957031 C 329.464844 234.800781 329.375 236.636719 329.195312 238.472656 C 329.015625 240.308594 328.746094 242.128906 328.386719 243.9375 C 328.027344 245.746094 327.582031 247.53125 327.050781 249.296875 C 326.515625 251.0625 325.898438 252.796875 325.195312 254.5 C 324.492188 256.203125 323.710938 257.867188 322.84375 259.496094 C 321.976562 261.121094 321.035156 262.703125 320.015625 264.238281 C 318.992188 265.769531 317.898438 267.253906 316.734375 268.679688 C 315.570312 270.105469 314.335938 271.472656 313.039062 272.777344 C 311.738281 274.085938 310.378906 275.324219 308.957031 276.496094 C 307.539062 277.671875 306.0625 278.769531 304.535156 279.796875 C 303.007812 280.828125 301.433594 281.777344 299.808594 282.652344 C 298.1875 283.523438 296.527344 284.316406 294.832031 285.027344 C 293.132812 285.738281 291.402344 286.363281 289.640625 286.902344 C 287.882812 287.445312 286.101562 287.898438 284.296875 288.261719 C 282.492188 288.628906 280.671875 288.90625 278.839844 289.09375 C 277.011719 289.28125 275.171875 289.378906 273.332031 289.386719 L 243.679688 289.386719 L 243.679688 313.15625 C 243.675781 315 243.578125 316.839844 243.390625 318.671875 C 243.203125 320.507812 242.925781 322.328125 242.5625 324.132812 C 242.195312 325.941406 241.742188 327.726562 241.203125 329.488281 C 240.664062 331.25 240.039062 332.984375 239.328125 334.683594 C 238.617188 336.386719 237.828125 338.046875 236.957031 339.671875 C 236.082031 341.292969 235.132812 342.871094 234.109375 344.402344 C 233.082031 345.933594 231.980469 347.410156 230.8125 348.832031 C 229.640625 350.253906 228.402344 351.613281 227.097656 352.917969 C 225.792969 354.21875 224.429688 355.453125 223.003906 356.617188 C 221.578125 357.785156 220.097656 358.878906 218.566406 359.902344 C 217.035156 360.925781 215.457031 361.867188 213.832031 362.734375 C 212.207031 363.601562 210.542969 364.386719 208.839844 365.09375 C 207.140625 365.796875 205.40625 366.414062 203.644531 366.949219 C 201.882812 367.484375 200.097656 367.929688 198.292969 368.289062 C 196.488281 368.644531 194.667969 368.914062 192.835938 369.097656 C 191.003906 369.277344 189.167969 369.367188 187.324219 369.367188 C 185.484375 369.367188 183.648438 369.277344 181.816406 369.097656 C 179.984375 368.914062 178.164062 368.644531 176.359375 368.289062 C 174.550781 367.929688 172.769531 367.484375 171.007812 366.949219 C 169.242188 366.414062 167.511719 365.796875 165.808594 365.09375 C 164.109375 364.386719 162.445312 363.601562 160.820312 362.734375 C 159.195312 361.867188 157.617188 360.925781 156.085938 359.902344 C 154.554688 358.878906 153.074219 357.785156 151.648438 356.617188 C 150.222656 355.453125 148.859375 354.21875 147.554688 352.917969 C 146.25 351.613281 145.011719 350.253906 143.839844 348.832031 C 142.671875 347.410156 141.570312 345.933594 140.542969 344.402344 C 139.519531 342.871094 138.570312 341.292969 137.695312 339.671875 C 136.824219 338.046875 136.03125 336.386719 135.324219 334.683594 C 134.613281 332.984375 133.988281 331.25 133.449219 329.488281 C 132.910156 327.726562 132.457031 325.941406 132.089844 324.132812 C 131.726562 322.328125 131.449219 320.507812 131.261719 318.671875 C 131.074219 316.839844 130.976562 315 130.972656 313.15625 L 130.972656 289.386719 L 71.589844 289.386719 C 57.050781 289.386719 57.050781 267.375 71.589844 267.375 L 130.972656 267.375 L 130.972656 226.964844 C 130.972656 212.40625 152.953125 212.40625 152.953125 226.964844 L 152.953125 267.375 L 221.695312 267.375 L 221.695312 198.535156 L 101.320312 198.535156 C 99.476562 198.527344 97.640625 198.429688 95.808594 198.242188 C 93.976562 198.054688 92.160156 197.78125 90.355469 197.414062 C 88.550781 197.046875 86.769531 196.59375 85.007812 196.054688 C 83.25 195.511719 81.519531 194.886719 79.820312 194.175781 C 78.121094 193.464844 76.460938 192.675781 74.839844 191.800781 C 73.21875 190.929688 71.644531 189.976562 70.113281 188.949219 C 68.585938 187.921875 67.113281 186.820312 65.691406 185.648438 C 64.269531 184.476562 62.910156 183.238281 61.613281 181.929688 C 60.3125 180.625 59.078125 179.257812 57.914062 177.832031 C 56.75 176.402344 55.65625 174.921875 54.636719 173.386719 C 53.613281 171.855469 52.671875 170.273438 51.804688 168.644531 C 50.9375 167.019531 50.15625 165.355469 49.453125 163.648438 C 48.75 161.945312 48.128906 160.210938 47.597656 158.449219 C 47.066406 156.683594 46.617188 154.894531 46.261719 153.089844 C 45.902344 151.28125 45.632812 149.457031 45.453125 147.625 C 45.273438 145.789062 45.183594 143.949219 45.183594 142.105469 C 45.183594 140.261719 45.273438 138.421875 45.453125 136.589844 C 45.632812 134.753906 45.902344 132.933594 46.261719 131.125 C 46.617188 129.316406 47.066406 127.53125 47.597656 125.765625 C 48.128906 124 48.75 122.265625 49.453125 120.5625 C 50.15625 118.859375 50.9375 117.191406 51.804688 115.566406 C 52.671875 113.9375 53.613281 112.359375 54.636719 110.824219 C 55.65625 109.289062 56.75 107.808594 57.914062 106.382812 C 59.078125 104.953125 60.3125 103.589844 61.613281 102.28125 C 62.910156 100.976562 64.269531 99.738281 65.691406 98.5625 C 67.113281 97.390625 68.585938 96.289062 70.113281 95.261719 C 71.644531 94.234375 73.21875 93.285156 74.839844 92.410156 C 76.460938 91.539062 78.121094 90.746094 79.820312 90.035156 C 81.519531 89.324219 83.25 88.699219 85.007812 88.15625 C 86.769531 87.617188 88.550781 87.164062 90.355469 86.796875 C 92.160156 86.433594 93.976562 86.15625 95.808594 85.96875 C 97.640625 85.78125 99.476562 85.683594 101.320312 85.675781 Z M 101.320312 85.675781 " fill-opacity="1" fill-rule="nonzero"/></g></svg>