<svg width="41" height="41" viewBox="0 0 41 41" fill="none" xmlns="http://www.w3.org/2000/svg">
<path d="M15.25 11.1785V25.2723M25.5 15.0223V29.116M26.3593 35.0918L34.6874 30.9286C35.3383 30.604 35.75 29.9378 35.75 29.21V7.88147C35.75 6.4533 34.2467 5.52397 32.9688 6.16288L26.3593 9.4668C25.8178 9.73842 25.1805 9.73842 24.6407 9.4668L16.1093 5.2028C15.8425 5.06943 15.5483 5 15.25 5C14.9517 5 14.6575 5.06943 14.3907 5.2028L6.06258 9.36601C5.41 9.6923 5 10.3585 5 11.0846V32.4131C5 33.8413 6.50333 34.7706 7.78117 34.1317L14.3907 30.8278C14.9322 30.5562 15.5695 30.5562 16.1093 30.8278L24.6407 35.0935C25.1823 35.3634 25.8195 35.3634 26.3593 35.0935V35.0918Z" stroke="white" stroke-width="1.5" stroke-linecap="round" stroke-linejoin="round"/>
</svg>
