<svg width="41" height="41" viewBox="0 0 41 41" fill="none" xmlns="http://www.w3.org/2000/svg">
<path d="M8.96875 9.65722C8.96875 8.19489 10.5353 7.26897 11.8165 7.97281L31.5307 18.8173C31.832 18.9832 32.0833 19.2269 32.2583 19.5231C32.4333 19.8192 32.5256 20.1569 32.5256 20.5009C32.5256 20.8448 32.4333 21.1825 32.2583 21.4787C32.0833 21.7748 31.832 22.0185 31.5307 22.1844L11.8165 33.0272C11.524 33.1881 11.1946 33.2699 10.8608 33.2647C10.527 33.2596 10.2004 33.1675 9.91294 32.9977C9.62554 32.8279 9.38732 32.5861 9.22176 32.2962C9.05619 32.0064 8.969 31.6783 8.96875 31.3445V9.65722V9.65722Z" stroke="white" stroke-width="1.5" stroke-linecap="round" stroke-linejoin="round"/>
</svg>
